<svg xmlns="http://www.w3.org/2000/svg" width="86" height="86" viewBox="0 0 86 86">
  <g id="Group_7" data-name="Group 7" transform="translate(-1569 -211)">
    <g id="Group_6" data-name="Group 6" transform="translate(-146)">
      <g id="Group_4" data-name="Group 4" transform="translate(23 -39.36)">
        <rect id="Rectangle_2" data-name="Rectangle 2" width="86" height="86" transform="translate(1692 250.36)" fill="none"/>
      </g>
    </g>
    <path id="iconfinder_icon-arrow-down-b_211614" d="M96.319,162.714l.2.231,14.941,17.193a2.78,2.78,0,0,0,2.109.945,2.818,2.818,0,0,0,2.109-.945l14.93-17.16.253-.286a1.7,1.7,0,0,0,.3-.956A1.781,1.781,0,0,0,129.332,160H97.824A1.781,1.781,0,0,0,96,161.736,1.678,1.678,0,0,0,96.319,162.714Z" transform="translate(1498.422 83.459)" fill="#fff"/>
  </g>
</svg>
