<svg xmlns="http://www.w3.org/2000/svg" width="86" height="86" viewBox="0 0 86 86">
  <g id="Group_9" data-name="Group 9" transform="translate(-1569 -211)">
    <g id="Group_8" data-name="Group 8">
      <g id="Group_7" data-name="Group 7">
        <g id="Group_6" data-name="Group 6" transform="translate(-146)">
          <g id="Group_4" data-name="Group 4" transform="translate(23 -39.36)">
            <rect id="Rectangle_2" data-name="Rectangle 2" width="86" height="86" transform="translate(1692 250.36)" fill="none"/>
          </g>
        </g>
      </g>
    </g>
    <path id="iconfinder_13.Clipboard_290137" d="M50.043,67h-37.3A5.739,5.739,0,0,1,7,61.261V11.043A5.739,5.739,0,0,1,12.739,5.3h4.3a1.435,1.435,0,1,1,0,2.87h-4.3a2.871,2.871,0,0,0-2.87,2.87V61.261a2.871,2.871,0,0,0,2.87,2.87h37.3a2.871,2.871,0,0,0,2.87-2.87V11.043a2.871,2.871,0,0,0-2.87-2.87h-4.3a1.435,1.435,0,0,1,0-2.87h4.3a5.739,5.739,0,0,1,5.739,5.739V61.261A5.739,5.739,0,0,1,50.043,67Z" transform="translate(1580.609 220)" fill-rule="evenodd"/>
    <g id="Rectangle_3" data-name="Rectangle 3" transform="translate(1601 223)" fill="#fff" stroke="#000" stroke-linejoin="round" stroke-width="2.5">
      <rect width="22" height="12" stroke="none"/>
      <rect x="1.25" y="1.25" width="19.5" height="9.5" fill="none"/>
    </g>
  </g>
</svg>
