<svg xmlns="http://www.w3.org/2000/svg" width="86" height="86" viewBox="0 0 86 86">
  <g id="Group_5" data-name="Group 5" transform="translate(-1715 -211)">
    <g id="Group_4" data-name="Group 4" transform="translate(23 -39.36)">
      <rect id="Rectangle_2" data-name="Rectangle 2" width="86" height="86" transform="translate(1692 250.36)" fill="none"/>
    </g>
    <g id="Livello_32" transform="translate(1676.209 246.75)">
      <path id="Path_2" data-name="Path 2" d="M70.814,62.671H20.792v8.311H70.814Zm-.829-33.235a3.284,3.284,0,0,0-4.645,0L49.047,45.731V3.286a3.286,3.286,0,1,0-6.572,0V45.731L26.4,29.657A3.286,3.286,0,1,0,21.755,34.3L43.437,55.986a3.137,3.137,0,0,0,.241.219c.038.031.078.057.117.088s.093.071.14.1.1.057.143.087.087.053.133.077.1.05.149.074.1.046.142.066.1.036.148.053.1.039.156.055.1.026.149.039.107.029.162.039.116.017.173.027.1.016.145.021a3.341,3.341,0,0,0,.649,0c.05-.005.1-.014.145-.021s.117-.015.172-.027.109-.028.162-.039.1-.024.15-.039.1-.036.156-.055a1.267,1.267,0,0,0,.148-.053c.048-.021.1-.044.142-.066s.1-.046.149-.074.089-.052.132-.077.1-.055.144-.087.095-.071.141-.1.078-.057.117-.088a3.5,3.5,0,0,0,.348-.336c.038-.034.077-.066.115-.1L69.985,34.085a3.288,3.288,0,0,0,0-4.649" transform="translate(35 -28)" fill="#fff"/>
    </g>
  </g>
</svg>
